<mxfile host="Electron" modified="2023-11-08T09:55:11.996Z" agent="Mozilla/5.0 (Windows NT 10.0; Win64; x64) AppleWebKit/537.36 (KHTML, like Gecko) draw.io/22.0.3 Chrome/114.0.5735.289 Electron/25.8.4 Safari/537.36" etag="dWTpQ_oB8_U53jfhEYih" version="22.0.3" type="device">
  <diagram name="Página-1" id="FAcLt8oisLnMLdrKlRac">
    <mxGraphModel dx="1105" dy="704" grid="1" gridSize="10" guides="1" tooltips="1" connect="1" arrows="1" fold="1" page="1" pageScale="1" pageWidth="1169" pageHeight="827" math="0" shadow="0">
      <root>
        <mxCell id="0" />
        <mxCell id="1" parent="0" />
        <mxCell id="4NeIbpdBp0q2sKqe_ENI-28" value="Pais" style="whiteSpace=wrap;html=1;align=center;" vertex="1" parent="1">
          <mxGeometry x="200" y="400" width="100" height="40" as="geometry" />
        </mxCell>
        <mxCell id="4NeIbpdBp0q2sKqe_ENI-29" value="Bando" style="whiteSpace=wrap;html=1;align=center;" vertex="1" parent="1">
          <mxGeometry x="500" y="400" width="100" height="40" as="geometry" />
        </mxCell>
        <mxCell id="4NeIbpdBp0q2sKqe_ENI-30" value="Guerra" style="whiteSpace=wrap;html=1;align=center;" vertex="1" parent="1">
          <mxGeometry x="800" y="400" width="100" height="40" as="geometry" />
        </mxCell>
        <mxCell id="4NeIbpdBp0q2sKqe_ENI-31" value="pertenece" style="shape=rhombus;perimeter=rhombusPerimeter;whiteSpace=wrap;html=1;align=center;" vertex="1" parent="1">
          <mxGeometry x="340" y="390" width="120" height="60" as="geometry" />
        </mxCell>
        <mxCell id="4NeIbpdBp0q2sKqe_ENI-32" value="Participa" style="shape=rhombus;perimeter=rhombusPerimeter;whiteSpace=wrap;html=1;align=center;" vertex="1" parent="1">
          <mxGeometry x="640" y="390" width="120" height="60" as="geometry" />
        </mxCell>
        <mxCell id="4NeIbpdBp0q2sKqe_ENI-33" value="" style="endArrow=none;html=1;rounded=0;" edge="1" parent="1" source="4NeIbpdBp0q2sKqe_ENI-28" target="4NeIbpdBp0q2sKqe_ENI-31">
          <mxGeometry relative="1" as="geometry">
            <mxPoint x="410" y="430" as="sourcePoint" />
            <mxPoint x="330" y="420" as="targetPoint" />
          </mxGeometry>
        </mxCell>
        <mxCell id="4NeIbpdBp0q2sKqe_ENI-34" value="" style="endArrow=none;html=1;rounded=0;" edge="1" parent="1" source="4NeIbpdBp0q2sKqe_ENI-29" target="4NeIbpdBp0q2sKqe_ENI-32">
          <mxGeometry relative="1" as="geometry">
            <mxPoint x="610" y="420" as="sourcePoint" />
            <mxPoint x="600" y="430" as="targetPoint" />
          </mxGeometry>
        </mxCell>
        <mxCell id="4NeIbpdBp0q2sKqe_ENI-35" value="" style="endArrow=none;html=1;rounded=0;" edge="1" parent="1" source="4NeIbpdBp0q2sKqe_ENI-30" target="4NeIbpdBp0q2sKqe_ENI-32">
          <mxGeometry relative="1" as="geometry">
            <mxPoint x="440" y="430" as="sourcePoint" />
            <mxPoint x="600" y="430" as="targetPoint" />
          </mxGeometry>
        </mxCell>
        <mxCell id="4NeIbpdBp0q2sKqe_ENI-36" value="" style="endArrow=none;html=1;rounded=0;" edge="1" parent="1" source="4NeIbpdBp0q2sKqe_ENI-31" target="4NeIbpdBp0q2sKqe_ENI-29">
          <mxGeometry relative="1" as="geometry">
            <mxPoint x="470" y="420" as="sourcePoint" />
            <mxPoint x="590" y="430" as="targetPoint" />
          </mxGeometry>
        </mxCell>
        <mxCell id="4NeIbpdBp0q2sKqe_ENI-42" value="Nombre" style="ellipse;whiteSpace=wrap;html=1;align=center;" vertex="1" parent="1">
          <mxGeometry x="200" y="320" width="100" height="40" as="geometry" />
        </mxCell>
        <mxCell id="4NeIbpdBp0q2sKqe_ENI-43" value="Periodo_Indep." style="ellipse;whiteSpace=wrap;html=1;align=center;" vertex="1" parent="1">
          <mxGeometry x="200" y="480" width="100" height="40" as="geometry" />
        </mxCell>
        <mxCell id="4NeIbpdBp0q2sKqe_ENI-44" value="" style="endArrow=none;html=1;rounded=0;" edge="1" parent="1" source="4NeIbpdBp0q2sKqe_ENI-28" target="4NeIbpdBp0q2sKqe_ENI-42">
          <mxGeometry relative="1" as="geometry">
            <mxPoint x="510" y="430" as="sourcePoint" />
            <mxPoint x="670" y="430" as="targetPoint" />
          </mxGeometry>
        </mxCell>
        <mxCell id="4NeIbpdBp0q2sKqe_ENI-45" value="" style="endArrow=none;html=1;rounded=0;" edge="1" parent="1" source="4NeIbpdBp0q2sKqe_ENI-43" target="4NeIbpdBp0q2sKqe_ENI-28">
          <mxGeometry relative="1" as="geometry">
            <mxPoint x="510" y="430" as="sourcePoint" />
            <mxPoint x="670" y="430" as="targetPoint" />
          </mxGeometry>
        </mxCell>
        <mxCell id="4NeIbpdBp0q2sKqe_ENI-46" value="Año_inicio" style="ellipse;whiteSpace=wrap;html=1;align=center;" vertex="1" parent="1">
          <mxGeometry x="800" y="320" width="100" height="40" as="geometry" />
        </mxCell>
        <mxCell id="4NeIbpdBp0q2sKqe_ENI-50" value="Año_fin" style="ellipse;whiteSpace=wrap;html=1;align=center;" vertex="1" parent="1">
          <mxGeometry x="800" y="480" width="100" height="40" as="geometry" />
        </mxCell>
        <mxCell id="4NeIbpdBp0q2sKqe_ENI-51" value="" style="endArrow=none;html=1;rounded=0;" edge="1" parent="1" source="4NeIbpdBp0q2sKqe_ENI-46" target="4NeIbpdBp0q2sKqe_ENI-30">
          <mxGeometry relative="1" as="geometry">
            <mxPoint x="560" y="407" as="sourcePoint" />
            <mxPoint x="720" y="407" as="targetPoint" />
          </mxGeometry>
        </mxCell>
        <mxCell id="4NeIbpdBp0q2sKqe_ENI-52" value="Fecha_union" style="ellipse;whiteSpace=wrap;html=1;align=center;" vertex="1" parent="1">
          <mxGeometry x="350" y="480" width="100" height="40" as="geometry" />
        </mxCell>
        <mxCell id="4NeIbpdBp0q2sKqe_ENI-53" value="" style="endArrow=none;html=1;rounded=0;" edge="1" parent="1" source="4NeIbpdBp0q2sKqe_ENI-31" target="4NeIbpdBp0q2sKqe_ENI-52">
          <mxGeometry relative="1" as="geometry">
            <mxPoint x="530" y="407" as="sourcePoint" />
            <mxPoint x="690" y="407" as="targetPoint" />
          </mxGeometry>
        </mxCell>
        <mxCell id="4NeIbpdBp0q2sKqe_ENI-54" value="Fecha_abandono" style="ellipse;whiteSpace=wrap;html=1;align=center;" vertex="1" parent="1">
          <mxGeometry x="350" y="320" width="100" height="40" as="geometry" />
        </mxCell>
        <mxCell id="4NeIbpdBp0q2sKqe_ENI-58" value="" style="endArrow=none;html=1;rounded=0;" edge="1" parent="1" source="4NeIbpdBp0q2sKqe_ENI-54" target="4NeIbpdBp0q2sKqe_ENI-31">
          <mxGeometry relative="1" as="geometry">
            <mxPoint x="530" y="407" as="sourcePoint" />
            <mxPoint x="690" y="407" as="targetPoint" />
          </mxGeometry>
        </mxCell>
        <mxCell id="4NeIbpdBp0q2sKqe_ENI-60" value="" style="endArrow=none;html=1;rounded=0;" edge="1" parent="1" source="4NeIbpdBp0q2sKqe_ENI-77" target="4NeIbpdBp0q2sKqe_ENI-30">
          <mxGeometry relative="1" as="geometry">
            <mxPoint x="950" y="420" as="sourcePoint" />
            <mxPoint x="720" y="407" as="targetPoint" />
          </mxGeometry>
        </mxCell>
        <mxCell id="4NeIbpdBp0q2sKqe_ENI-63" value="" style="endArrow=none;html=1;rounded=0;" edge="1" parent="1" source="4NeIbpdBp0q2sKqe_ENI-50" target="4NeIbpdBp0q2sKqe_ENI-30">
          <mxGeometry relative="1" as="geometry">
            <mxPoint x="580" y="407" as="sourcePoint" />
            <mxPoint x="740" y="407" as="targetPoint" />
          </mxGeometry>
        </mxCell>
        <mxCell id="4NeIbpdBp0q2sKqe_ENI-66" value="Id país" style="ellipse;whiteSpace=wrap;html=1;align=center;fontStyle=4;" vertex="1" parent="1">
          <mxGeometry x="70" y="400" width="100" height="40" as="geometry" />
        </mxCell>
        <mxCell id="4NeIbpdBp0q2sKqe_ENI-67" value="Id bando" style="ellipse;whiteSpace=wrap;html=1;align=center;fontStyle=4;" vertex="1" parent="1">
          <mxGeometry x="500" y="320" width="100" height="40" as="geometry" />
        </mxCell>
        <mxCell id="4NeIbpdBp0q2sKqe_ENI-73" value="Ganador" style="ellipse;whiteSpace=wrap;html=1;align=center;" vertex="1" parent="1">
          <mxGeometry x="500" y="480" width="100" height="40" as="geometry" />
        </mxCell>
        <mxCell id="4NeIbpdBp0q2sKqe_ENI-74" value="" style="endArrow=none;html=1;rounded=0;" edge="1" parent="1" source="4NeIbpdBp0q2sKqe_ENI-73" target="4NeIbpdBp0q2sKqe_ENI-29">
          <mxGeometry relative="1" as="geometry">
            <mxPoint x="380" y="490" as="sourcePoint" />
            <mxPoint x="540" y="490" as="targetPoint" />
          </mxGeometry>
        </mxCell>
        <mxCell id="4NeIbpdBp0q2sKqe_ENI-76" value="" style="endArrow=none;html=1;rounded=0;" edge="1" parent="1" source="4NeIbpdBp0q2sKqe_ENI-67" target="4NeIbpdBp0q2sKqe_ENI-29">
          <mxGeometry relative="1" as="geometry">
            <mxPoint x="390" y="500" as="sourcePoint" />
            <mxPoint x="550" y="500" as="targetPoint" />
          </mxGeometry>
        </mxCell>
        <mxCell id="4NeIbpdBp0q2sKqe_ENI-77" value="Id_guerra" style="ellipse;whiteSpace=wrap;html=1;align=center;fontStyle=4;" vertex="1" parent="1">
          <mxGeometry x="950" y="330" width="100" height="40" as="geometry" />
        </mxCell>
        <mxCell id="4NeIbpdBp0q2sKqe_ENI-78" value="Nombre_guerra" style="ellipse;whiteSpace=wrap;html=1;align=center;" vertex="1" parent="1">
          <mxGeometry x="960" y="430" width="100" height="40" as="geometry" />
        </mxCell>
        <mxCell id="4NeIbpdBp0q2sKqe_ENI-79" value="" style="endArrow=none;html=1;rounded=0;" edge="1" parent="1" source="4NeIbpdBp0q2sKqe_ENI-78" target="4NeIbpdBp0q2sKqe_ENI-30">
          <mxGeometry relative="1" as="geometry">
            <mxPoint x="490" y="460" as="sourcePoint" />
            <mxPoint x="650" y="460" as="targetPoint" />
          </mxGeometry>
        </mxCell>
        <mxCell id="4NeIbpdBp0q2sKqe_ENI-80" value="" style="endArrow=none;html=1;rounded=0;" edge="1" parent="1" source="4NeIbpdBp0q2sKqe_ENI-66" target="4NeIbpdBp0q2sKqe_ENI-28">
          <mxGeometry relative="1" as="geometry">
            <mxPoint x="430" y="450" as="sourcePoint" />
            <mxPoint x="590" y="450" as="targetPoint" />
          </mxGeometry>
        </mxCell>
        <mxCell id="4NeIbpdBp0q2sKqe_ENI-81" value="(1,n)" style="text;strokeColor=none;fillColor=none;spacingLeft=4;spacingRight=4;overflow=hidden;rotatable=0;points=[[0,0.5],[1,0.5]];portConstraint=eastwest;fontSize=12;whiteSpace=wrap;html=1;align=center;" vertex="1" parent="1">
          <mxGeometry x="300" y="390" width="40" height="30" as="geometry" />
        </mxCell>
        <mxCell id="4NeIbpdBp0q2sKqe_ENI-82" value="(0,1)" style="text;strokeColor=none;fillColor=none;spacingLeft=4;spacingRight=4;overflow=hidden;rotatable=0;points=[[0,0.5],[1,0.5]];portConstraint=eastwest;fontSize=12;whiteSpace=wrap;html=1;align=center;" vertex="1" parent="1">
          <mxGeometry x="460" y="390" width="40" height="30" as="geometry" />
        </mxCell>
        <mxCell id="4NeIbpdBp0q2sKqe_ENI-83" value="(1,n)" style="text;strokeColor=none;fillColor=none;spacingLeft=4;spacingRight=4;overflow=hidden;rotatable=0;points=[[0,0.5],[1,0.5]];portConstraint=eastwest;fontSize=12;whiteSpace=wrap;html=1;align=center;" vertex="1" parent="1">
          <mxGeometry x="600" y="390" width="40" height="30" as="geometry" />
        </mxCell>
        <mxCell id="4NeIbpdBp0q2sKqe_ENI-85" value="(1,n)" style="text;strokeColor=none;fillColor=none;spacingLeft=4;spacingRight=4;overflow=hidden;rotatable=0;points=[[0,0.5],[1,0.5]];portConstraint=eastwest;fontSize=12;whiteSpace=wrap;html=1;align=center;" vertex="1" parent="1">
          <mxGeometry x="760" y="390" width="40" height="30" as="geometry" />
        </mxCell>
      </root>
    </mxGraphModel>
  </diagram>
</mxfile>
